<svg width="122" height="146" viewBox="0 0 122 146" fill="none" xmlns="http://www.w3.org/2000/svg">
<path d="M78.7961 118.166C81.8491 138.595 76.7337 144.165 48.2638 142.5C7.43311 142.5 23.3605 129.908 24.4859 115.577C26.5422 105.528 22.4603 78.8451 48.2641 75.338C74.2871 75.7519 75.7431 97.7376 78.7961 118.166Z" fill="black"/>
<path d="M94.846 71.9569L80.0986 85.9301L71.2453 83.6296L64.1247 81.0078C56.3172 88.4054 67.5199 97.8485 71.2453 101.78C74.2257 104.926 85.0123 99.514 90.033 96.415C93.845 90.5922 100.889 78.3352 98.5714 75.8887C95.6739 72.8306 96.581 70.313 94.846 71.9569Z" fill="black"/>
<path fill-rule="evenodd" clip-rule="evenodd" d="M70.2166 99.9868C70.7447 100.515 71.2246 100.996 71.6267 101.42C72.2058 102.031 73.2336 102.292 74.6936 102.182C76.1333 102.074 77.8663 101.613 79.6952 100.947C83.2996 99.6335 87.1633 97.5626 89.659 96.0302C91.5536 93.128 94.2155 88.6847 96.1281 84.661C97.0967 82.6233 97.8617 80.7167 98.2431 79.183C98.4341 78.4151 98.5223 77.7662 98.5031 77.2543C98.4837 76.7369 98.3578 76.4252 98.1915 76.2497C96.8257 74.8082 96.2586 73.4679 95.9063 72.6351C95.866 72.5399 95.8285 72.4512 95.793 72.3699C95.7174 72.1969 95.6609 72.081 95.6135 72.0034C95.5237 72.0591 95.3933 72.1617 95.2074 72.3379L80.2489 86.5111L71.0891 84.1309L64.2546 81.6145C62.5725 83.304 61.9353 85.0666 61.9446 86.819C61.9545 88.6733 62.689 90.575 63.8092 92.4221C65.5863 95.3526 68.2394 98.0079 70.2166 99.9868ZM95.6988 71.9597C95.6988 71.9597 95.6982 71.9599 95.6971 71.9602L95.6988 71.9597ZM95.5577 71.9255C95.5567 71.9246 95.5562 71.9241 95.5562 71.9241L95.5577 71.9255ZM60.8959 86.8246C60.8846 84.6811 61.7163 82.5684 63.7647 80.6275L64.001 80.4036L71.4029 83.1289L79.9497 85.3498L94.4861 71.5766C94.7125 71.362 94.9254 71.1861 95.1293 71.0716C95.3333 70.957 95.5964 70.8661 95.8842 70.9403C96.1667 71.0131 96.3453 71.213 96.4572 71.3772C96.5701 71.5428 96.6659 71.7484 96.754 71.9499C96.7916 72.0362 96.8305 72.1278 96.8715 72.2244C97.2201 73.0462 97.7219 74.2294 98.9528 75.5284C99.3659 75.9645 99.527 76.571 99.5511 77.215C99.5755 77.8644 99.4638 78.6199 99.2608 79.4361C98.8543 81.0706 98.0545 83.051 97.0753 85.1112C95.1137 89.2378 92.3861 93.7794 90.4724 96.7025L90.4085 96.8002L90.3091 96.8615C87.7801 98.4225 83.7953 100.569 80.0542 101.932C78.1863 102.613 76.3501 103.109 74.7722 103.228C73.2145 103.345 71.7764 103.103 70.8654 102.141C70.4925 101.748 70.0361 101.291 69.5258 100.781C67.5485 98.8036 64.7639 96.0189 62.9125 92.9659C61.7422 91.0362 60.9072 88.9443 60.8959 86.8246Z" fill="black"/>
<path d="M25.1782 109.797L36.8392 86.6284C39.1537 75.6464 30.0733 85.0588 25.4863 89.1883C22.2761 92.0784 14.6342 106.682 14.2769 113.119C13.8487 120.836 14.3696 133.007 17.5283 132.548C21.4766 131.975 23.7609 135.389 23.442 132.793C23.1868 130.716 25.9756 116.287 25.1782 109.797Z" fill="black"/>
<path d="M17.9054 140.731C14.2396 140.015 14.9883 133.998 15.8208 131.079C18.4926 130.577 24.803 129.839 24.8729 131.242C25.0111 134.014 26.488 137.703 26.0773 138.974C25.6665 140.245 22.4877 141.626 17.9054 140.731Z" fill="white"/>
<path fill-rule="evenodd" clip-rule="evenodd" d="M16.8022 136.56C16.9532 138.331 17.5231 138.965 18.2403 139.105C20.3198 139.511 22.005 139.385 23.1517 139.068C23.7285 138.909 24.1294 138.712 24.3709 138.546C24.4382 138.5 24.4853 138.462 24.5172 138.433C24.5162 138.344 24.5087 138.173 24.4673 137.889C24.3962 137.402 24.2622 136.801 24.093 136.08C24.0653 135.962 24.0366 135.841 24.0072 135.717C23.7543 134.649 23.4519 133.371 23.3109 132.154C22.8452 132.089 22.1747 132.07 21.3549 132.1C19.9663 132.152 18.3788 132.337 17.1362 132.529C16.8718 133.763 16.6913 135.26 16.8022 136.56ZM15.8208 131.079C14.9883 133.998 14.2396 140.015 17.9054 140.731C22.4877 141.626 25.6665 140.245 26.0773 138.974C26.299 138.288 25.9706 136.897 25.5997 135.326C25.2835 133.987 24.9365 132.518 24.8729 131.242C24.803 129.839 18.4926 130.577 15.8208 131.079Z" fill="black"/>
<path fill-rule="evenodd" clip-rule="evenodd" d="M54.5072 19.5845C52.6109 19.5227 50.6821 19.6204 48.7367 19.8894L34.9126 21.8006C32.9674 22.0696 31.0846 22.4987 29.2763 23.0726C22.5196 18.8282 5.03691 12.0996 3.5787 14.9055C1.66725 18.5839 5.1806 41.7759 6.50983 50.0204C6.16123 52.7475 6.16358 55.561 6.5573 58.4089C9.0063 76.1226 25.1259 84.496 43.2344 81.9924L57.0584 80.0812C75.1669 77.5776 88.4102 65.1466 85.961 47.431C85.5673 44.5835 84.8062 41.875 83.7307 39.3449C82.7732 31.0493 79.8621 7.77189 77.0244 4.75139C74.8597 2.4463 59.8592 13.6656 54.5072 19.5845Z" fill="black"/>
<path fill-rule="evenodd" clip-rule="evenodd" d="M42.0751 68.3371C44.677 67.9774 46.8038 66.5065 47.8716 64.5826C49.4213 66.1446 51.8674 66.9832 54.4693 66.6235C58.5338 66.0616 61.4392 62.7881 60.9586 59.3119C60.478 55.8357 56.7935 53.4733 52.7289 54.0352C52.7043 54.0386 52.6797 54.0422 52.6552 54.0458L52.6551 54.0454L40.3347 55.7488L39.7116 55.8349L39.7147 55.8572C35.9792 56.6493 33.3896 59.7637 33.8454 63.0604C34.326 66.5366 38.0106 68.899 42.0751 68.3371Z" fill="white"/>
<path fill-rule="evenodd" clip-rule="evenodd" d="M47.4257 61.3573L49.2595 63.2057C50.3403 64.2951 52.1568 64.9696 54.2016 64.687C57.4917 64.2321 59.3169 61.7133 59.022 59.5798C58.727 57.4462 56.2868 55.5171 52.9967 55.972L52.9392 55.9802L50.9885 56.2666L50.9862 56.25L40.3589 57.7192L40.1203 57.7698C37.1183 58.4064 35.5016 60.764 35.7821 62.7928C36.0771 64.9263 38.5173 66.8554 41.8074 66.4005C43.8521 66.1178 45.4175 64.9757 46.1621 63.634L47.4257 61.3573ZM39.7147 55.8573L39.7116 55.835L52.6552 54.0455C52.6797 54.0419 52.7043 54.0387 52.7289 54.0353C52.7536 54.0319 52.7782 54.0286 52.8028 54.0254C56.838 53.5021 60.481 55.8569 60.9586 59.312C61.4392 62.7882 58.5339 66.0617 54.4693 66.6236C52.6314 66.8777 50.8712 66.5339 49.4498 65.7595C48.8589 65.4376 48.3266 65.0413 47.8716 64.5827C47.5581 65.1476 47.1533 65.6734 46.6719 66.1435C45.5139 67.2745 43.913 68.0831 42.0751 68.3372C38.0106 68.8991 34.326 66.5367 33.8454 63.0605C33.3896 59.7638 35.9792 56.6494 39.7147 55.8573Z" fill="black"/>
<path d="M48.6035 55.4938L44.271 56.0928C43.5201 56.1966 43.3981 56.9955 43.9784 57.2837L44.7195 57.4727C45.0589 57.5597 45.3589 57.6975 45.5971 57.8789L46.1796 58.3225C46.3604 58.4114 46.583 58.4376 46.7997 58.4076C47.0164 58.3777 47.2235 58.2921 47.3734 58.1575L47.8137 57.5724C47.9938 57.3332 48.2449 57.1176 48.5482 56.9434L49.2102 56.5604C49.6908 56.1272 49.3563 55.3897 48.6054 55.4935L48.6035 55.4938Z" fill="#FFB8B8"/>
<path fill-rule="evenodd" clip-rule="evenodd" d="M43.2944 59.1269L43.1088 59.0347C42.0541 58.511 41.4709 57.3744 41.7114 56.2202C41.9539 55.0559 42.9224 54.3054 44.0031 54.156L48.3375 53.5567C49.4205 53.407 50.5553 53.8691 51.1037 54.9228C51.6473 55.9671 51.3968 57.2214 50.519 58.0126L50.3666 58.15L49.5219 58.6386C49.4196 58.6973 49.3794 58.7437 49.376 58.7477C49.3757 58.748 49.3759 58.7478 49.376 58.7477L48.821 59.4851L48.6794 59.6122C48.1841 60.0568 47.5901 60.2719 47.0673 60.3442C46.5445 60.4165 45.9144 60.3706 45.3171 60.0771L45.1462 59.9931L44.4134 59.435C44.4118 59.4339 44.4004 59.4263 44.3763 59.4152C44.3454 59.4009 44.2986 59.3831 44.2346 59.3667C44.2343 59.3666 44.234 59.3665 44.2337 59.3664L43.2944 59.1269ZM46.1794 58.3225C46.3603 58.4113 46.5828 58.4375 46.7995 58.4075C47.0163 58.3776 47.2234 58.292 47.3733 58.1574L47.8136 57.5723C47.8986 57.4593 47.9995 57.3516 48.1143 57.251C48.2425 57.1386 48.388 57.0352 48.5481 56.9433L49.21 56.5603C49.6907 56.1271 49.3562 55.3896 48.6053 55.4934L44.2709 56.0927C43.5199 56.1965 43.3979 56.9954 43.9783 57.2836L44.7193 57.4726C44.8982 57.5185 45.066 57.5784 45.2197 57.6514C45.3577 57.7169 45.4842 57.793 45.5969 57.8788L46.1794 58.3225Z" fill="black"/>
<path fill-rule="evenodd" clip-rule="evenodd" d="M26.3533 59.6558C22.0139 60.2557 16.2594 57.2096 15.8598 54.3198C15.4603 51.43 20.1397 46.699 24.4791 46.0991C28.8185 45.4991 32.8904 49.0202 33.2899 51.91C33.6894 54.7998 30.6927 59.0558 26.3533 59.6558Z" fill="#8FFFAF"/>
<path fill-rule="evenodd" clip-rule="evenodd" d="M41.6543 10.9938C41.4247 11.965 40.9385 12.8144 40.2669 13.3518C39.6537 13.8425 38.8283 14.1007 37.9614 13.8006C37.1403 13.5162 36.4956 12.8021 36.0139 11.8365C35.765 11.3375 35.8709 10.8428 36.0494 10.4971C36.2191 10.1684 36.4832 9.90142 36.7413 9.69522C37.2659 9.27605 37.9931 8.92777 38.7538 8.71818C39.009 8.64786 39.2782 8.59034 39.5549 8.55161C39.2408 8.14975 38.657 7.89244 37.8969 7.82177C37.6071 7.79482 37.354 7.80459 37.1607 7.82976C37.1135 7.98439 37.0271 8.12943 36.902 8.24921C36.5121 8.62261 35.8933 8.60921 35.5199 8.21927C35.3834 8.0767 35.2344 7.86685 35.1735 7.58647C35.1081 7.28529 35.1645 6.99416 35.2968 6.75504C35.5235 6.34536 35.9262 6.15702 36.156 6.0703C36.6848 5.87079 37.3933 5.81142 38.0779 5.87506C39.3737 5.99554 41.3407 6.6707 41.7153 8.72273C42.4013 8.96541 43.0317 9.42429 43.448 10.1789C44.5737 12.1391 44.8685 14.018 44.4515 15.9019C44.0442 17.7419 42.9767 19.4976 41.563 21.2782C41.2273 21.701 40.6124 21.7717 40.1896 21.436C39.7668 21.1003 39.6961 20.4854 40.0318 20.0625C41.3781 18.3667 42.2304 16.8896 42.5426 15.4793C42.8445 14.1156 42.6599 12.7292 41.7486 11.1456L41.7434 11.1365L41.7384 11.1274C41.7125 11.0801 41.6845 11.0356 41.6543 10.9938ZM39.7636 10.497C39.6022 10.5221 39.4378 10.5577 39.2731 10.603C38.7116 10.7577 38.238 11.0018 37.9616 11.2227C37.9475 11.2339 37.9345 11.2447 37.9224 11.255C38.2206 11.7521 38.477 11.9101 38.6012 11.9531C38.7011 11.9877 38.8365 11.9924 39.0454 11.8253C39.3355 11.5931 39.6245 11.1151 39.7636 10.497ZM36.805 7.91817C36.8044 7.91792 36.8099 7.91455 36.8232 7.90877C36.8122 7.91552 36.8056 7.91841 36.805 7.91817Z" fill="black"/>
<path fill-rule="evenodd" clip-rule="evenodd" d="M25.2282 57.8379C26.8326 57.616 27.6837 54.1847 27.1291 50.1737C26.9131 48.6109 26.5155 47.1907 26.0158 46.0523C25.5113 46.0146 24.9973 46.0275 24.4794 46.0991C23.382 46.2509 22.2628 46.6668 21.2095 47.2504C21.1055 48.3626 21.1339 49.6375 21.3191 50.977C21.8736 54.9879 23.6238 58.0597 25.2282 57.8379Z" fill="black"/>
<path fill-rule="evenodd" clip-rule="evenodd" d="M74.1759 46.1051C71.9475 42.7058 66.2539 43.4852 66.2539 43.4852C66.2539 43.4852 60.5501 44.2384 58.857 48.1612C58.7775 48.3283 58.7515 48.5035 58.7249 48.6828C58.7132 48.7612 58.7015 48.8403 58.6851 48.9198C58.5238 49.7945 59.5876 50.5217 60.5593 49.902C60.6019 49.8747 60.6447 49.8473 60.6878 49.8197C63.1433 48.2464 66.4531 46.1256 73.0285 47.6954C74.105 47.9666 74.5438 47.3144 74.4508 46.8095C74.4194 46.5512 74.3126 46.3223 74.1759 46.1051Z" fill="#8FFFAF"/>
<path d="M96.5242 67.3295L95.3325 72.0961L99.5034 76.8632C101.887 77.3399 105.66 75.4729 107.249 74.4799C108.679 66.8532 103.078 65.3438 100.099 65.5424C100.695 58.3924 99.5034 59.5836 97.7159 58.9878C96.2859 58.5111 96.3256 64.3503 96.5242 67.3295Z" fill="white"/>
<path fill-rule="evenodd" clip-rule="evenodd" d="M99.1625 59.763C98.8349 59.5218 98.4182 59.5595 98.2313 59.6107L98.1546 59.6317L98.0753 59.6384C98.0201 59.6431 97.9384 59.6671 97.819 59.8066C97.6896 59.9577 97.5596 60.1982 97.4442 60.5226C97.2138 61.1698 97.1137 61.9387 97.0762 62.3872C97.0185 63.0759 96.9832 63.5606 97.0978 64.0732C97.1155 64.1525 97.1337 64.2329 97.1521 64.3143C97.3172 65.0453 97.5009 65.8585 97.5547 66.6901C97.609 67.5301 97.6358 68.4757 97.4472 69.4107C97.3561 69.8623 97.1171 70.248 96.9631 70.4962C96.9551 70.509 96.9474 70.5215 96.9398 70.5338C96.7683 70.8098 96.6772 70.9566 96.631 71.098C96.4818 71.5542 95.9911 71.8031 95.5349 71.6539C95.0787 71.5048 94.8298 71.014 94.9789 70.5578C95.0948 70.2034 95.3013 69.8744 95.441 69.652C95.4571 69.6264 95.4722 69.6022 95.4863 69.5796C95.655 69.3077 95.7225 69.1703 95.7434 69.0669C95.8843 68.3681 95.8727 67.6137 95.8202 66.8024C95.7758 66.1157 95.6233 65.4383 95.4541 64.6864C95.4367 64.6092 95.4192 64.5312 95.4016 64.4524C95.2249 63.6619 95.286 62.9338 95.3398 62.2938C95.3413 62.2765 95.3427 62.2593 95.3441 62.2421C95.386 61.7419 95.5013 60.7976 95.8067 59.9397C95.9591 59.5116 96.1771 59.0517 96.4988 58.676C96.8161 58.3055 97.2624 57.9883 97.8478 57.915C98.3067 57.8056 99.2994 57.7054 100.193 58.3632C101.172 59.0843 101.725 60.4828 101.621 62.7799C101.598 63.2805 101.512 63.6765 101.423 64.0211C101.4 64.1097 101.379 64.1908 101.358 64.2676C101.35 64.299 101.342 64.3297 101.334 64.3599C101.437 64.3462 101.531 64.3379 101.608 64.3321C102.358 64.2755 103.034 64.4301 103.668 64.7017C104.586 65.0951 105.646 65.5827 106.527 66.2814C107.018 66.6707 107.466 67.2241 107.81 67.8014C108.154 68.3774 108.433 69.0436 108.531 69.6839C108.735 71.0204 108.932 72.7804 108.35 74.3225C108.271 74.534 108.133 74.727 108.015 74.8731C107.885 75.0344 107.724 75.2036 107.544 75.3713C107.185 75.7064 106.716 76.0661 106.184 76.3685C105.172 76.9443 103.67 77.4525 102.29 76.7347C101.679 76.4168 100.816 75.8526 100.043 75.1299C99.2845 74.4216 98.5142 73.4698 98.2552 72.3629L98.2371 72.2856L98.2333 72.2063C98.1888 71.2739 98.1487 69.9017 98.738 68.8047C98.7488 68.7847 98.7648 68.7533 98.7846 68.7147C98.845 68.5964 98.9406 68.4093 99.0292 68.2654C99.1542 68.0621 99.3689 67.7579 99.7143 67.5625C100.132 67.3262 100.662 67.4733 100.899 67.8911C101.131 68.3022 100.992 68.8221 100.59 69.0638C100.583 69.0715 100.555 69.1019 100.51 69.1762C100.475 69.2318 100.44 69.2963 100.4 69.3748C100.389 69.3953 100.377 69.4198 100.363 69.4462C100.333 69.5044 100.299 69.5721 100.269 69.6273C99.9497 70.222 99.9234 71.0801 99.9655 72.0374C100.128 72.6295 100.592 73.2649 101.229 73.86C101.876 74.4644 102.607 74.9401 103.092 75.1927C103.664 75.4901 104.463 75.3478 105.325 74.8577C105.73 74.6271 106.091 74.3499 106.359 74.1004C106.492 73.9758 106.594 73.8659 106.663 73.7806C106.707 73.726 106.727 73.6948 106.733 73.6858C107.127 72.6184 107.017 71.2857 106.813 69.946C106.759 69.5915 106.584 69.1393 106.317 68.6917C106.051 68.2453 105.732 67.8698 105.447 67.6433C104.764 67.1015 103.894 66.6898 102.983 66.2993C102.551 66.1138 102.155 66.0339 101.738 66.0653C101.609 66.075 101.488 66.0896 101.389 66.1146C101.353 66.1236 101.327 66.1322 101.31 66.1389C101.28 66.1718 101.203 66.2563 101.1 66.3295C100.997 66.4019 100.671 66.6004 100.253 66.4603C99.8658 66.3306 99.7116 66.0092 99.6627 65.8919C99.5191 65.5478 99.4036 65.1759 99.4916 64.642C99.545 64.3178 99.6248 64.0196 99.6909 63.7723C99.7083 63.7074 99.7248 63.6459 99.7395 63.5884C99.8139 63.2992 99.8697 63.0329 99.8847 62.7012C99.9777 60.6478 99.4568 59.9796 99.1625 59.763ZM101.288 66.1485L101.289 66.1481L101.288 66.1485ZM100.011 64.9837C100.011 64.9837 100.013 64.9811 100.017 64.977C100.013 64.9818 100.011 64.9837 100.011 64.9837ZM101.266 65.2196L101.266 65.2218L101.267 65.2227C101.266 65.2216 101.266 65.2196 101.266 65.2196Z" fill="black"/>
<path fill-rule="evenodd" clip-rule="evenodd" d="M103.08 75.7107C103.428 76.0408 103.443 76.5908 103.113 76.9393C103.068 76.9864 103.027 77.0364 102.971 77.104C102.966 77.11 102.961 77.1163 102.956 77.1229C102.907 77.1824 102.841 77.263 102.771 77.3398C102.594 77.5313 102.358 77.7317 102.004 77.8658C101.977 77.8763 101.944 77.8897 101.906 77.9049C101.664 78.003 101.229 78.1788 100.765 78.1788C100.568 78.1788 100.143 78.1962 99.8106 78.2147C99.7519 78.218 99.6991 78.2212 99.653 78.2241C99.5815 78.2432 99.5062 78.2533 99.4286 78.2533C99.3969 78.2533 99.3635 78.253 99.3328 78.2519C99.3184 78.2514 99.2945 78.2503 99.2671 78.2477C99.2537 78.2465 99.2302 78.244 99.2016 78.2393L99.2007 78.2392C99.1829 78.2362 99.1117 78.2246 99.0272 78.192C98.9903 78.1778 98.8817 78.1343 98.77 78.0377C98.6526 77.9359 98.4248 77.6711 98.4769 77.2687C98.5211 76.9271 98.7422 76.7432 98.8047 76.6945C98.8885 76.6291 98.9651 76.5946 98.9964 76.5811C99.0649 76.5516 99.1222 76.5377 99.1386 76.5337C99.1636 76.5277 99.1843 76.5238 99.1967 76.5216C99.2395 76.514 99.2806 76.5098 99.2996 76.5079C99.391 76.4987 99.5485 76.4885 99.7139 76.4793C100.049 76.4606 100.516 76.4407 100.765 76.4407C100.868 76.4407 100.947 76.4102 101.19 76.3166C101.246 76.2948 101.311 76.2697 101.388 76.2407C101.421 76.2281 101.442 76.2165 101.493 76.1608C101.527 76.1246 101.56 76.0846 101.616 76.0151C101.62 76.0112 101.623 76.0072 101.626 76.0031C101.683 75.9332 101.76 75.8406 101.851 75.7439C102.181 75.3954 102.732 75.3806 103.08 75.7107ZM99.4669 78.238C99.4669 78.238 99.4678 78.2379 99.4697 78.2377C99.4679 78.2379 99.467 78.238 99.4669 78.238Z" fill="black"/>
<path d="M118.629 51.2103C118.475 51.5467 118.534 52.8712 118.7 53.0604C118.949 53.3337 119.411 53.2811 119.494 52.9762C119.754 52.0407 118.973 50.443 118.629 51.2103Z" fill="#FFDC81"/>
<path d="M105.74 38.2288C105.669 38.6912 105.704 39.8895 105.728 40.6043C105.74 40.825 105.929 40.9932 106.166 41.0143C106.853 41.0668 106.995 39.9106 106.557 38.008C106.451 37.535 105.834 37.6927 105.74 38.2288Z" fill="#FFDC81"/>
<path d="M108.488 37.251C109.507 37.251 110.076 37.1144 110.076 36.8621C110.076 36.5362 109.223 36.4521 107.943 36.6308C106.569 36.841 106.936 37.251 108.488 37.251Z" fill="#FFDC81"/>
<path d="M105.716 32.5945C105.432 32.6996 105.515 35.9581 105.799 36.0947C106.581 36.4626 106.925 36.0527 106.83 34.9175C106.605 32.5524 106.498 32.3106 105.716 32.5945Z" fill="#FFDC81"/>
<path d="M103.37 36.6101C102.576 36.6942 102.375 36.7677 102.375 36.9885C102.375 37.3353 104.744 37.4194 105.301 37.0936C105.964 36.7046 104.934 36.4419 103.37 36.6101Z" fill="#FFDC81"/>
<path d="M118.759 49.8436C118.973 49.8226 119.139 49.6754 119.139 49.4862C119.198 48.2459 119.245 47.426 118.38 47.7308C118.214 47.7939 118.179 48.5717 118.309 49.3916C118.392 49.8646 118.404 49.8752 118.759 49.8436Z" fill="#FFDC81"/>
<path d="M119.696 50.2953C119.328 50.432 119.364 50.6842 119.767 50.7577C120.122 50.8313 121.52 50.6527 121.793 50.5056C122.29 50.2218 120.406 50.0326 119.696 50.2953Z" fill="#FFDC81"/>
<path d="M118.072 50.2851C117.693 50.159 117.61 50.159 117.006 50.3167C116.094 50.5584 116.473 50.8843 117.527 50.7582C118.262 50.6741 118.522 50.4428 118.072 50.2851Z" fill="#FFDC81"/>
<path d="M116.698 45.3342C116.994 44.8928 116.9 44.3357 116.485 43.9888C115.454 43.1268 114.459 41.6552 113.879 40.1311C113.547 39.2797 112.67 35.8635 112.67 35.4325C112.67 34.8859 111.995 34.6126 111.568 34.991C111.474 35.0751 111.355 35.443 111.32 35.8109C111.094 37.6609 109.862 41.855 109.163 43.1163C108.82 43.7365 108.109 44.3357 107.363 44.63C106.723 44.8823 106.723 44.9243 107.517 45.534C109.092 46.7533 110.253 49.1604 111.071 52.9235C111.805 56.2977 113.097 55.2045 112.954 54.5212C112.658 53.1968 114.4 48.7505 116.39 45.7862L116.698 45.3342ZM115.182 44.9033C114.033 46.2067 112.789 48.2459 112.196 49.8121L111.924 50.5479L111.77 49.8647C110.692 45.2291 108.5 44.9979 108.263 44.7982C108.524 44.5564 110.881 43.2425 111.971 40.2152C112.303 39.3007 112.244 39.3007 112.564 40.1626C113.168 41.7919 114.009 43.1163 114.98 43.9993L115.537 44.5038L115.182 44.9033Z" fill="#FFDC81"/>
</svg>
